<svg width="200" height="200" viewBox="0 0 200 200" xmlns="http://www.w3.org/2000/svg">
  <!-- Background circle -->
  <circle cx="100" cy="100" r="95" fill="#4A90E2" stroke="#2E5C8A" stroke-width="3"/>
  
  <!-- Calendar icon -->
  <rect x="50" y="60" width="100" height="80" rx="5" fill="#FFFFFF" stroke="#2E5C8A" stroke-width="2"/>
  <line x1="70" y1="60" x2="70" y2="140" stroke="#2E5C8A" stroke-width="2"/>
  <line x1="90" y1="60" x2="90" y2="140" stroke="#2E5C8A" stroke-width="2"/>
  <line x1="110" y1="60" x2="110" y2="140" stroke="#2E5C8A" stroke-width="2"/>
  <line x1="130" y1="60" x2="130" y2="140" stroke="#2E5C8A" stroke-width="2"/>
  <line x1="50" y1="80" x2="150" y2="80" stroke="#2E5C8A" stroke-width="2"/>
  <line x1="50" y1="100" x2="150" y2="100" stroke="#2E5C8A" stroke-width="2"/>
  <line x1="50" y1="120" x2="150" y2="120" stroke="#2E5C8A" stroke-width="2"/>
  
  <!-- Family icon (simplified) -->
  <circle cx="75" cy="40" r="8" fill="#FFD700"/>
  <circle cx="100" cy="35" r="10" fill="#FFD700"/>
  <circle cx="125" cy="40" r="8" fill="#FFD700"/>
  
  <!-- Heart icon -->
  <path d="M 100 155 Q 85 145 75 135 Q 65 125 65 115 Q 65 105 75 105 Q 80 105 85 110 Q 90 105 95 110 Q 100 105 105 110 Q 110 105 115 110 Q 120 105 125 110 Q 135 105 135 115 Q 135 125 125 135 Q 115 145 100 155 Z" fill="#FF6B6B"/>
</svg>

